<?xml version="1.0" standalone="no"?><!DOCTYPE svg PUBLIC "-//W3C//DTD SVG 1.1//EN" "http://www.w3.org/Graphics/SVG/1.1/DTD/svg11.dtd"><svg t="1617633115022" class="icon" viewBox="0 0 1024 1024" version="1.1" xmlns="http://www.w3.org/2000/svg" p-id="5517" width="128" height="128" xmlns:xlink="http://www.w3.org/1999/xlink"><defs><style type="text/css"></style></defs><path d="M919.04 232.448l-128-128c-12.288-12.288-32.768-12.288-45.056 0s-12.288 32.768 0 45.056l41.472 41.472-74.752 74.752c-1.536 1.536-2.56 2.56-3.584 4.096-49.152-30.72-105.472-50.688-166.4-55.808v-84.48h59.904c17.92 0 32.256-14.336 32.256-32.256s-14.336-32.256-32.256-32.256h-186.88c-17.92 0-32.256 14.336-32.256 32.256s14.336 32.256 32.256 32.256h62.464v84.48c-190.464 16.384-339.968 176.128-339.968 370.688 0 205.824 166.4 372.224 372.224 372.224s372.224-166.4 372.224-372.224c0-109.568-47.616-207.872-122.88-275.968l72.192-72.192 41.472 41.472c6.144 6.144 14.336 9.216 22.528 9.216s16.384-3.072 22.528-9.216c12.8-12.8 12.8-33.28 0.512-45.568z m-124.416 231.936c10.752 25.088 17.92 51.712 21.504 78.336h-70.656c-17.92 0-32.256 14.336-32.256 32.256s14.336 32.256 32.256 32.256h72.704c-2.56 33.792-10.24 66.56-23.552 97.28-15.36 36.864-37.888 69.632-66.048 97.792s-61.44 50.688-97.792 66.048c-27.648 11.776-56.32 18.944-85.504 22.528l-1.536-100.864c-0.512-17.92-14.848-31.744-32.256-31.744s-31.744 14.848-31.744 32.256l1.536 100.352c-31.232-3.072-61.44-10.752-90.112-23.04-36.864-15.36-69.632-37.888-97.792-66.048-28.16-28.16-50.688-61.44-66.048-97.792-11.776-28.16-19.456-57.856-22.528-88.064h77.824c17.92 0 32.256-14.336 32.256-32.256s-14.336-32.256-32.256-32.256H204.8c3.072-30.208 10.752-59.904 22.528-88.064 15.36-36.864 37.888-69.632 66.048-97.792 28.16-28.16 61.44-50.688 97.792-66.048 28.16-11.776 57.856-19.456 88.064-22.528V332.8c0 17.92 14.336 32.256 32.256 32.256s32.256-14.336 32.256-32.256v-54.784c30.208 3.072 59.904 10.752 88.064 22.528 36.864 15.36 69.632 37.888 97.792 66.048 27.136 28.16 49.152 61.44 65.024 97.792z" fill="#d81e06" p-id="5518"></path></svg>